<?xml version="1.0" encoding="UTF-8" standalone="no"?>
<!DOCTYPE svg PUBLIC "-//W3C//DTD SVG 1.1//EN" "http://www.w3.org/Graphics/SVG/1.1/DTD/svg11.dtd">
<svg width="100%" height="100%" viewBox="0 0 24 24" version="1.1" xmlns="http://www.w3.org/2000/svg" xmlns:xlink="http://www.w3.org/1999/xlink" xml:space="preserve" xmlns:serif="http://www.serif.com/" style="fill-rule:evenodd;clip-rule:evenodd;stroke-linejoin:round;stroke-miterlimit:2;">
    <g transform="matrix(1.04606,0,0,1.02979,0,0)">
        <path d="M22.943,4.566C22.943,2.046 20.929,0 18.448,0L4.495,0C2.014,0 0,2.046 0,4.566L0,18.74C0,21.26 2.014,23.306 4.495,23.306L18.448,23.306C20.929,23.306 22.943,21.26 22.943,18.74L22.943,4.566Z" style="fill:rgb(0,129,255);"/>
    </g>
    <path d="M6.4,19L17.575,19L15.475,16.9C14.992,17.25 14.454,17.521 13.863,17.713C13.271,17.904 12.65,18 12,18C11.35,18 10.729,17.9 10.138,17.7C9.546,17.5 9.008,17.225 8.525,16.875L6.4,19ZM5,17.575L7.1,15.475C6.75,14.992 6.479,14.454 6.288,13.862C6.096,13.271 6,12.65 6,12C6,11.35 6.1,10.729 6.3,10.137C6.5,9.546 6.775,9.008 7.125,8.525L5,6.4L5,17.575ZM8.55,14.025L10.6,12L8.55,9.975C8.367,10.275 8.229,10.592 8.138,10.925C8.046,11.258 8,11.617 8,12C8,12.383 8.046,12.742 8.138,13.075C8.229,13.408 8.367,13.725 8.55,14.025ZM12,16C12.383,16 12.742,15.954 13.075,15.862C13.408,15.771 13.725,15.633 14.025,15.45L12,13.4L9.95,15.45C10.25,15.633 10.571,15.771 10.913,15.862C11.254,15.954 11.617,16 12,16ZM12,10.575L14.025,8.55C13.725,8.367 13.408,8.229 13.075,8.137C12.742,8.046 12.383,8 12,8C11.617,8 11.258,8.046 10.925,8.137C10.592,8.229 10.275,8.367 9.975,8.55L12,10.575ZM15.45,14.025C15.633,13.725 15.771,13.408 15.863,13.075C15.954,12.742 16,12.383 16,12C16,11.617 15.954,11.254 15.863,10.913C15.771,10.571 15.633,10.25 15.45,9.95L13.425,11.975L15.45,14.025ZM19,17.575L19,6.4L16.875,8.525C17.225,9.008 17.5,9.546 17.7,10.137C17.9,10.729 18,11.35 18,12C18,12.65 17.904,13.271 17.713,13.862C17.521,14.454 17.25,14.992 16.9,15.475L19,17.575ZM15.475,7.125L17.6,5L6.425,5L8.525,7.1C9.008,6.75 9.546,6.479 10.138,6.287C10.729,6.096 11.35,6 12,6C12.65,6 13.271,6.1 13.863,6.3C14.454,6.5 14.992,6.775 15.475,7.125ZM5,21C4.45,21 3.979,20.804 3.588,20.413C3.196,20.021 3,19.55 3,19L3,5C3,4.45 3.196,3.979 3.588,3.587C3.979,3.196 4.45,3 5,3L19,3C19.55,3 20.021,3.196 20.413,3.587C20.804,3.979 21,4.45 21,5L21,19C21,19.55 20.804,20.021 20.413,20.413C20.021,20.804 19.55,21 19,21L5,21Z" style="fill:white;fill-rule:nonzero;"/>
</svg>
